<svg width="24" height="18" viewBox="0 0 24 18" fill="none" xmlns="http://www.w3.org/2000/svg">
<path d="M23.2125 10.1729C23.1534 10.2173 23.0862 10.2495 23.0146 10.2678C22.943 10.2862 22.8686 10.2902 22.7955 10.2798C22.7223 10.2693 22.652 10.2446 22.5884 10.207C22.5248 10.1693 22.4693 10.1195 22.425 10.0604C21.955 9.43007 21.3438 8.91857 20.6405 8.56692C19.9372 8.21527 19.1613 8.03325 18.375 8.03544C18.2258 8.03544 18.0827 7.97618 17.9773 7.87069C17.8718 7.7652 17.8125 7.62213 17.8125 7.47294C17.8125 7.32376 17.8718 7.18069 17.9773 7.0752C18.0827 6.96971 18.2258 6.91044 18.375 6.91044C18.8376 6.91105 19.2908 6.78002 19.6816 6.53267C20.0725 6.28532 20.3849 5.93185 20.5824 5.51356C20.7799 5.09526 20.8543 4.62942 20.7969 4.17043C20.7394 3.71144 20.5526 3.27826 20.2582 2.92149C19.9638 2.56472 19.5739 2.2991 19.1342 2.15564C18.6944 2.01218 18.2229 1.99681 17.7747 2.11133C17.3266 2.22585 16.9202 2.46552 16.6032 2.80236C16.2862 3.1392 16.0716 3.55929 15.9844 4.01357C15.9549 4.16103 15.8685 4.29093 15.7439 4.37516C15.6193 4.45938 15.4666 4.49114 15.3188 4.46357C15.2464 4.45013 15.1774 4.42238 15.1159 4.38194C15.0544 4.3415 15.0015 4.28919 14.9605 4.22807C14.9195 4.16694 14.891 4.09825 14.8769 4.026C14.8627 3.95375 14.8632 3.8794 14.8781 3.80732C15.0471 2.93923 15.5328 2.165 16.241 1.63523C16.9491 1.10545 17.829 0.858013 18.7095 0.941032C19.5899 1.02405 20.408 1.43159 21.0047 2.08439C21.6013 2.73719 21.9338 3.58858 21.9375 4.47294C21.9393 5.01939 21.8141 5.55878 21.5716 6.04852C21.3292 6.53825 20.9763 6.96492 20.5406 7.29482C21.6487 7.71266 22.6146 8.4379 23.325 9.38544C23.4145 9.50479 23.4529 9.65481 23.4318 9.80249C23.4108 9.95018 23.3319 10.0834 23.2125 10.1729ZM17.9063 16.6042C17.9682 16.7389 17.9755 16.8923 17.9265 17.0322C17.8776 17.1721 17.7762 17.2876 17.6438 17.3542C17.5675 17.3904 17.4844 17.4096 17.4 17.4104C17.2937 17.4126 17.1891 17.3836 17.0991 17.3269C17.0091 17.2703 16.9377 17.1885 16.8938 17.0917C16.4459 16.1753 15.7498 15.4031 14.8846 14.8629C14.0194 14.3228 13.02 14.0364 12 14.0364C10.98 14.0364 9.98058 14.3228 9.1154 14.8629C8.25022 15.4031 7.55409 16.1753 7.10625 17.0917C7.04148 17.2258 6.92614 17.3288 6.78553 17.378C6.64493 17.4272 6.49054 17.4187 6.35625 17.3542C6.22382 17.2876 6.12244 17.1721 6.07346 17.0322C6.02449 16.8923 6.03177 16.7389 6.09375 16.6042C6.82247 15.1027 8.09663 13.9359 9.65625 13.3417C8.87515 12.836 8.27858 12.0912 7.9556 11.2185C7.63263 10.3458 7.60058 9.39211 7.86424 8.49973C8.12791 7.60734 8.67314 6.82418 9.41853 6.26717C10.1639 5.71016 11.0695 5.40918 12 5.40918C12.9305 5.40918 13.8361 5.71016 14.5815 6.26717C15.3269 6.82418 15.8721 7.60734 16.1358 8.49973C16.3994 9.39211 16.3674 10.3458 16.0444 11.2185C15.7214 12.0912 15.1249 12.836 14.3438 13.3417C15.9034 13.9359 17.1775 15.1027 17.9063 16.6042ZM12 12.9104C12.6304 12.9104 13.2467 12.7235 13.7709 12.3733C14.2951 12.023 14.7036 11.5252 14.9449 10.9427C15.1861 10.3603 15.2492 9.71941 15.1263 9.10109C15.0033 8.48278 14.6997 7.91482 14.2539 7.46904C13.8081 7.02326 13.2402 6.71968 12.6219 6.59669C12.0035 6.4737 11.3626 6.53682 10.7802 6.77808C10.1978 7.01933 9.69994 7.42788 9.34969 7.95206C8.99944 8.47625 8.8125 9.09252 8.8125 9.72294C8.81497 10.5676 9.15159 11.3769 9.74883 11.9741C10.3461 12.5714 11.1554 12.908 12 12.9104ZM5.625 6.91044C5.16244 6.91105 4.70925 6.78002 4.31837 6.53267C3.9275 6.28532 3.61507 5.93185 3.4176 5.51356C3.22012 5.09526 3.14574 4.62942 3.20315 4.17043C3.26056 3.71144 3.44739 3.27826 3.74181 2.92149C4.03623 2.56472 4.42608 2.2991 4.86584 2.15564C5.3056 2.01218 5.7771 1.99681 6.22526 2.11133C6.67343 2.22585 7.07976 2.46552 7.39678 2.80236C7.71381 3.1392 7.92845 3.55929 8.01563 4.01357C8.04512 4.16103 8.13152 4.29093 8.2561 4.37516C8.38068 4.45938 8.53342 4.49114 8.68125 4.46357C8.75363 4.45013 8.82261 4.42238 8.88413 4.38194C8.94565 4.3415 8.99847 4.28919 9.03951 4.22807C9.08055 4.16694 9.10897 4.09825 9.12312 4.026C9.13726 3.95375 9.13684 3.8794 9.12188 3.80732C8.95295 2.93923 8.46717 2.165 7.75903 1.63523C7.05089 1.10545 6.17102 0.858013 5.29055 0.941032C4.41008 1.02405 3.59196 1.43159 2.99532 2.08439C2.39869 2.73719 2.06619 3.58858 2.0625 4.47294C2.06068 5.01939 2.18593 5.55878 2.42835 6.04852C2.67078 6.53825 3.02374 6.96492 3.45938 7.29482C2.35128 7.71266 1.38537 8.4379 0.675 9.38544C0.630679 9.44454 0.598431 9.51178 0.580099 9.58334C0.561766 9.6549 0.557707 9.72937 0.568153 9.80249C0.5786 9.87562 0.603348 9.94597 0.640983 10.0095C0.678619 10.0731 0.728405 10.1286 0.7875 10.1729C0.846595 10.2173 0.913841 10.2495 0.985398 10.2678C1.05696 10.2862 1.13142 10.2902 1.20455 10.2798C1.27768 10.2693 1.34803 10.2446 1.41159 10.207C1.47515 10.1693 1.53068 10.1195 1.575 10.0604C2.04503 9.43007 2.65618 8.91857 3.35949 8.56692C4.06279 8.21527 4.83869 8.03325 5.625 8.03544C5.77418 8.03544 5.91726 7.97618 6.02275 7.87069C6.12824 7.7652 6.1875 7.62213 6.1875 7.47294C6.1875 7.32376 6.12824 7.18069 6.02275 7.0752C5.91726 6.96971 5.77418 6.91044 5.625 6.91044Z" fill="#00024A"/>
</svg>
