<svg width="19" height="25" viewBox="0 0 19 25" fill="none" xmlns="http://www.w3.org/2000/svg">
<path fill-rule="evenodd" clip-rule="evenodd" d="M13.6237 0.593018C14.033 0.98469 14.4489 1.36977 14.8504 1.7692C16.1321 3.04448 17.4061 4.32757 18.6897 5.60102C18.881 5.79091 18.9608 5.99381 18.9605 6.26371C18.955 11.6413 18.9566 17.019 18.9562 22.3966C18.9562 23.7077 18.1207 24.543 16.8094 24.5431C12.2502 24.5435 7.69084 24.5435 3.13159 24.5431C1.83568 24.543 0.993998 23.7034 0.993904 22.4104C0.993483 15.8716 0.993717 9.33271 0.993717 2.79386C0.993717 1.61618 1.50684 0.941415 2.64354 0.622491C2.65664 0.618842 2.66637 0.603123 2.67765 0.593018C6.3264 0.593018 9.97505 0.593018 13.6237 0.593018ZM12.9689 1.58703C12.8564 1.58703 12.7652 1.58703 12.6741 1.58703C9.50969 1.58703 6.34534 1.58689 3.1809 1.58712C2.37238 1.58717 1.98824 1.9685 1.98824 2.77182C1.98806 9.30324 1.98806 15.8347 1.98824 22.3661C1.98824 23.1589 2.3744 23.549 3.1598 23.549C7.70371 23.5494 12.2477 23.5494 16.7916 23.549C17.5682 23.5489 17.9622 23.1588 17.9623 22.3886C17.9627 17.2056 17.9626 12.0225 17.9626 6.83943C17.9626 6.75723 17.9626 6.67503 17.9626 6.58053C16.9835 6.58053 16.0408 6.58113 15.0981 6.58039C13.8164 6.5794 12.9704 5.73791 12.969 4.46235C12.9681 3.59718 12.9688 2.73206 12.9688 1.86694C12.9689 1.78301 12.9689 1.69912 12.9689 1.58703ZM17.1295 5.57416C16.0809 4.52574 15.0172 3.46221 13.9719 2.41716C13.9719 3.13964 13.9497 3.90988 13.98 4.67812C13.9991 5.16518 14.3659 5.54389 14.8501 5.56509C15.6254 5.59905 16.4033 5.57416 17.1295 5.57416Z" fill="#00024A"/>
</svg>
