<svg width="19" height="25" viewBox="0 0 19 25" fill="none" xmlns="http://www.w3.org/2000/svg">
<path fill-rule="evenodd" clip-rule="evenodd" d="M13.6238 0.593018C14.0331 0.98469 14.4489 1.36977 14.8504 1.7692C16.1322 3.04448 17.4062 4.32757 18.6897 5.60102C18.8811 5.79091 18.9609 5.99381 18.9606 6.26371C18.955 11.6413 18.9566 17.019 18.9563 22.3966C18.9562 23.7077 18.1208 24.543 16.8095 24.5431C12.2502 24.5435 7.6909 24.5435 3.13165 24.5431C1.83574 24.543 0.994059 23.7034 0.993965 22.4104C0.993544 15.8716 0.993778 9.33271 0.993778 2.79386C0.993778 1.61618 1.5069 0.941415 2.6436 0.622491C2.6567 0.618842 2.66643 0.603123 2.67771 0.593018C6.32646 0.593018 9.97511 0.593018 13.6238 0.593018ZM12.9689 1.58703C12.8565 1.58703 12.7653 1.58703 12.6742 1.58703C9.50976 1.58703 6.3454 1.58689 3.18096 1.58712C2.37244 1.58717 1.9883 1.9685 1.9883 2.77182C1.98812 9.30324 1.98812 15.8347 1.9883 22.3661C1.9883 23.1589 2.37446 23.549 3.15986 23.549C7.70377 23.5494 12.2478 23.5494 16.7917 23.549C17.5683 23.5489 17.9623 23.1588 17.9624 22.3886C17.9628 17.2056 17.9626 12.0225 17.9626 6.83943C17.9626 6.75723 17.9626 6.67503 17.9626 6.58053C16.9835 6.58053 16.0409 6.58113 15.0982 6.58039C13.8164 6.5794 12.9705 5.73791 12.9691 4.46235C12.9681 3.59718 12.9689 2.73206 12.9689 1.86694C12.9689 1.78301 12.9689 1.69912 12.9689 1.58703ZM17.1295 5.57416C16.0809 4.52574 15.0173 3.46221 13.972 2.41716C13.972 3.13964 13.9498 3.90988 13.98 4.67812C13.9992 5.16518 14.3659 5.54389 14.8502 5.56509C15.6255 5.59905 16.4034 5.57416 17.1295 5.57416Z" fill="#00024A"/>
<path fill-rule="evenodd" clip-rule="evenodd" d="M9.98475 11.5742C11.7373 11.5742 13.4899 11.5741 15.2425 11.5744C15.3281 11.5744 15.4142 11.5719 15.4994 11.5792C15.7603 11.6014 15.9505 11.7977 15.9606 12.05C15.9709 12.3077 15.7796 12.5304 15.5152 12.5631C15.446 12.5717 15.3752 12.568 15.3051 12.568C11.7532 12.5682 8.20131 12.5686 4.64945 12.5666C4.53446 12.5665 4.41324 12.5606 4.30592 12.5246C4.08875 12.4519 3.96351 12.2284 3.99237 12.0076C4.02152 11.7842 4.19715 11.6072 4.42358 11.582C4.51612 11.5717 4.61024 11.5745 4.70362 11.5744C6.464 11.5741 8.22437 11.5742 9.98475 11.5742Z" fill="#00024A"/>
<path fill-rule="evenodd" clip-rule="evenodd" d="M10.0007 14.5679C11.7455 14.5679 13.4902 14.5679 15.235 14.5681C15.3207 14.5681 15.4067 14.5656 15.492 14.5723C15.7629 14.5935 15.9594 14.7995 15.961 15.0596C15.9627 15.3178 15.7666 15.5316 15.4995 15.5584C15.43 15.5654 15.3593 15.5619 15.2893 15.5619C11.7452 15.562 8.20103 15.562 4.65694 15.5618C4.58686 15.5618 4.51621 15.5654 4.44679 15.558C4.18026 15.5297 3.98559 15.3137 3.98948 15.0555C3.99336 14.7951 4.19013 14.5922 4.4626 14.572C4.54788 14.5657 4.63387 14.5681 4.71953 14.5681C6.47991 14.5679 8.24028 14.5679 10.0007 14.5679Z" fill="#00024A"/>
<path fill-rule="evenodd" clip-rule="evenodd" d="M9.98068 18.5556C8.20473 18.5556 6.42877 18.5556 4.65282 18.5553C4.57497 18.5553 4.496 18.56 4.41951 18.5488C4.16674 18.5119 3.98372 18.2939 3.98961 18.0449C3.99556 17.7932 4.18536 17.5917 4.44346 17.567C4.51303 17.5604 4.58353 17.5618 4.65357 17.5618C8.19766 17.5615 11.7418 17.5615 15.2859 17.5615C15.2937 17.5615 15.3015 17.5615 15.3093 17.5616C15.7314 17.563 15.9619 17.7383 15.9612 18.0573C15.9605 18.3744 15.7241 18.5554 15.3085 18.5554C13.5326 18.5557 11.7566 18.5556 9.98068 18.5556Z" fill="#00024A"/>
<path fill-rule="evenodd" clip-rule="evenodd" d="M6.02161 4.5811C6.14709 4.5811 6.28622 4.57726 6.42508 4.58185C6.76337 4.59298 6.98199 4.79415 6.97951 5.08711C6.97698 5.38021 6.75949 5.57769 6.41764 5.58494C6.12164 5.59125 5.82536 5.58279 5.52926 5.58789C5.20828 5.59341 4.98943 5.79406 4.98601 6.07593C4.98264 6.35851 5.1949 6.56033 5.51719 6.58087C6.25113 6.6277 6.79771 7.0837 6.94578 7.77249C7.09048 8.44552 6.77796 9.07144 6.13039 9.42494C6.06751 9.45923 6.00486 9.53502 5.9869 9.60337C5.90999 9.89558 5.75701 10.0558 5.51144 10.0714C5.2698 10.0868 5.08945 9.94143 4.99453 9.65553C4.98732 9.63383 4.97563 9.61362 4.95729 9.5738C4.8095 9.5738 4.65511 9.57867 4.50115 9.57277C4.20267 9.56131 3.98929 9.35079 3.98933 9.07518C3.98938 8.79757 4.19841 8.59074 4.50227 8.58297C4.79822 8.57539 5.09455 8.58335 5.3906 8.57951C5.74905 8.57483 5.97661 8.38246 5.98274 8.08562C5.98858 7.79977 5.77516 7.60108 5.43106 7.57207C4.68477 7.50924 4.16304 7.06353 4.01829 6.36533C3.88187 5.70742 4.20168 5.07748 4.83766 4.73712C4.89679 4.7055 4.96168 4.64272 4.97895 4.58171C5.07541 4.24024 5.1985 4.10615 5.45469 4.09348C5.71841 4.08042 5.86681 4.20131 5.98274 4.52244C5.98784 4.53652 5.99953 4.54821 6.02161 4.5811Z" fill="#00024A"/>
<path fill-rule="evenodd" clip-rule="evenodd" d="M7.49815 21.5492C6.50905 21.5492 5.51995 21.5527 4.5309 21.5475C4.10845 21.5453 3.8589 21.1546 4.0523 20.8113C4.1586 20.6227 4.32931 20.5532 4.54152 20.5545C5.14115 20.5578 5.74087 20.5554 6.34059 20.5554C7.68791 20.5554 9.03528 20.5545 10.3826 20.5562C10.7348 20.5566 10.9386 20.7155 10.9635 20.9977C10.992 21.3222 10.776 21.547 10.4187 21.5482C9.44524 21.5514 8.47172 21.5493 7.49815 21.5492Z" fill="#00024A"/>
<path fill-rule="evenodd" clip-rule="evenodd" d="M12.4609 8.58044C13.4344 8.58049 14.408 8.5738 15.3812 8.58755C15.5305 8.58966 15.7019 8.65525 15.8211 8.74643C15.9714 8.86147 15.9979 9.04959 15.9309 9.2371C15.8645 9.42283 15.7293 9.52879 15.5401 9.56603C15.4798 9.57792 15.416 9.57403 15.3538 9.57403C13.4301 9.57441 11.5066 9.57469 9.58293 9.57403C9.24487 9.57389 9.03298 9.42596 8.99074 9.16641C8.93689 8.8356 9.15495 8.5855 9.51706 8.58241C10.1868 8.57665 10.8566 8.58049 11.5263 8.58035C11.8378 8.5803 12.1493 8.58035 12.4609 8.58044Z" fill="#00024A"/>
</svg>
