<svg width="77" height="32" viewBox="0 0 77 32" fill="none" xmlns="http://www.w3.org/2000/svg">
<path d="M16 21.5C15.7167 21.5 15.4793 21.404 15.288 21.212C15.096 21.0207 15 20.7833 15 20.5C15 20.2167 15.096 19.9793 15.288 19.788C15.4793 19.596 15.7167 19.5 16 19.5H18C18.2833 19.5 18.521 19.596 18.713 19.788C18.9043 19.9793 19 20.2167 19 20.5C19 20.7833 18.9043 21.0207 18.713 21.212C18.521 21.404 18.2833 21.5 18 21.5H16ZM9 11.5C8.71667 11.5 8.47933 11.4043 8.288 11.213C8.096 11.021 8 10.7833 8 10.5C8 10.2167 8.096 9.979 8.288 9.787C8.47933 9.59567 8.71667 9.5 9 9.5H25C25.2833 9.5 25.5207 9.59567 25.712 9.787C25.904 9.979 26 10.2167 26 10.5C26 10.7833 25.904 11.021 25.712 11.213C25.5207 11.4043 25.2833 11.5 25 11.5H9ZM12 16.5C11.7167 16.5 11.479 16.404 11.287 16.212C11.0957 16.0207 11 15.7833 11 15.5C11 15.2167 11.0957 14.979 11.287 14.787C11.479 14.5957 11.7167 14.5 12 14.5H22C22.2833 14.5 22.5207 14.5957 22.712 14.787C22.904 14.979 23 15.2167 23 15.5C23 15.7833 22.904 16.0207 22.712 16.212C22.5207 16.404 22.2833 16.5 22 16.5H12Z" fill="#00024A"/>
<path d="M41 10.728V12.31H36.926V14.816H40.048V16.37H36.926V20.5H34.966V10.728H41ZM43.3838 11.82C43.0385 11.82 42.7492 11.7127 42.5158 11.498C42.2918 11.274 42.1798 10.9987 42.1798 10.672C42.1798 10.3453 42.2918 10.0747 42.5158 9.86C42.7492 9.636 43.0385 9.524 43.3838 9.524C43.7292 9.524 44.0138 9.636 44.2378 9.86C44.4712 10.0747 44.5878 10.3453 44.5878 10.672C44.5878 10.9987 44.4712 11.274 44.2378 11.498C44.0138 11.7127 43.7292 11.82 43.3838 11.82ZM44.3498 12.744V20.5H42.3898V12.744H44.3498ZM48.2463 10.14V20.5H46.2863V10.14H48.2463ZM52.4648 14.354V18.106C52.4648 18.3673 52.5255 18.5587 52.6468 18.68C52.7775 18.792 52.9921 18.848 53.2908 18.848H54.2008V20.5H52.9688C51.3168 20.5 50.4908 19.6973 50.4908 18.092V14.354H49.5668V12.744H50.4908V10.826H52.4648V12.744H54.2008V14.354H52.4648ZM57.5705 13.948C57.8225 13.5373 58.1492 13.2153 58.5505 12.982C58.9612 12.7487 59.4279 12.632 59.9505 12.632V14.69H59.4325C58.8165 14.69 58.3499 14.8347 58.0325 15.124C57.7245 15.4133 57.5705 15.9173 57.5705 16.636V20.5H55.6105V12.744H57.5705V13.948ZM64.7147 20.626C63.968 20.626 63.296 20.4627 62.6987 20.136C62.1014 19.8 61.63 19.3287 61.2847 18.722C60.9487 18.1153 60.7807 17.4153 60.7807 16.622C60.7807 15.8287 60.9534 15.1287 61.2987 14.522C61.6534 13.9153 62.134 13.4487 62.7407 13.122C63.3474 12.786 64.024 12.618 64.7707 12.618C65.5174 12.618 66.194 12.786 66.8007 13.122C67.4074 13.4487 67.8834 13.9153 68.2287 14.522C68.5834 15.1287 68.7607 15.8287 68.7607 16.622C68.7607 17.4153 68.5787 18.1153 68.2147 18.722C67.86 19.3287 67.3747 19.8 66.7587 20.136C66.152 20.4627 65.4707 20.626 64.7147 20.626ZM64.7147 18.918C65.0694 18.918 65.4007 18.834 65.7087 18.666C66.026 18.4887 66.278 18.2273 66.4647 17.882C66.6514 17.5367 66.7447 17.1167 66.7447 16.622C66.7447 15.8847 66.5487 15.32 66.1567 14.928C65.774 14.5267 65.3027 14.326 64.7427 14.326C64.1827 14.326 63.7114 14.5267 63.3287 14.928C62.9554 15.32 62.7687 15.8847 62.7687 16.622C62.7687 17.3593 62.9507 17.9287 63.3147 18.33C63.688 18.722 64.1547 18.918 64.7147 18.918ZM73.1664 20.626C72.5318 20.626 71.9624 20.514 71.4584 20.29C70.9544 20.0567 70.5531 19.744 70.2544 19.352C69.9651 18.96 69.8064 18.526 69.7784 18.05H71.7524C71.7898 18.3487 71.9344 18.596 72.1864 18.792C72.4478 18.988 72.7698 19.086 73.1524 19.086C73.5258 19.086 73.8151 19.0113 74.0204 18.862C74.2351 18.7127 74.3424 18.5213 74.3424 18.288C74.3424 18.036 74.2118 17.8493 73.9504 17.728C73.6984 17.5973 73.2924 17.4573 72.7324 17.308C72.1538 17.168 71.6778 17.0233 71.3044 16.874C70.9404 16.7247 70.6231 16.496 70.3524 16.188C70.0911 15.88 69.9604 15.4647 69.9604 14.942C69.9604 14.5127 70.0818 14.1207 70.3244 13.766C70.5764 13.4113 70.9311 13.1313 71.3884 12.926C71.8551 12.7207 72.4011 12.618 73.0264 12.618C73.9504 12.618 74.6878 12.8513 75.2384 13.318C75.7891 13.7753 76.0924 14.396 76.1484 15.18H74.2724C74.2444 14.872 74.1138 14.6293 73.8804 14.452C73.6564 14.2653 73.3531 14.172 72.9704 14.172C72.6158 14.172 72.3404 14.2373 72.1444 14.368C71.9578 14.4987 71.8644 14.6807 71.8644 14.914C71.8644 15.1753 71.9951 15.376 72.2564 15.516C72.5178 15.6467 72.9238 15.782 73.4744 15.922C74.0344 16.062 74.4964 16.2067 74.8604 16.356C75.2244 16.5053 75.5371 16.7387 75.7984 17.056C76.0691 17.364 76.2091 17.7747 76.2184 18.288C76.2184 18.736 76.0924 19.1373 75.8404 19.492C75.5978 19.8467 75.2431 20.1267 74.7764 20.332C74.3191 20.528 73.7824 20.626 73.1664 20.626Z" fill="#00024A"/>
</svg>
