<svg width="24" height="25" viewBox="0 0 24 25" fill="none" xmlns="http://www.w3.org/2000/svg">
<path fill-rule="evenodd" clip-rule="evenodd" d="M14.1554 18.9685C14.628 18.9281 15.1017 18.8977 15.5727 18.8442C15.9523 18.8011 16.3319 18.7456 16.7058 18.6683C17.2532 18.5551 17.7975 18.4253 18.3394 18.2879C18.8647 18.1547 19.3893 18.0158 19.9068 17.8555C20.3589 17.7155 20.7961 17.5272 21.2485 17.3886C21.6526 17.2646 22.0641 17.127 22.4807 17.0907C22.985 17.0467 23.4478 17.2507 23.8392 17.575C23.9164 17.639 23.968 17.7722 23.974 17.8768C23.9917 18.1825 23.9446 18.4953 23.9893 18.7955C24.0482 19.1914 23.8593 19.3905 23.5501 19.5686C22.6786 20.0709 21.8286 20.6119 20.9474 21.0962C20.1046 21.5595 19.246 21.9992 18.3703 22.3964C17.6115 22.7406 16.8253 23.0284 16.0394 23.3079C15.4297 23.5247 14.7998 23.6834 14.183 23.8807C13.6967 24.0361 13.2278 24.2798 12.7311 24.3607C12.0419 24.4729 11.343 24.6819 10.6298 24.4383C10.3851 24.3546 10.1157 24.3462 9.86354 24.2806C9.40594 24.1613 8.95398 24.0208 8.49757 23.897C8.12483 23.7959 7.74739 23.712 7.37494 23.61C6.95517 23.4951 6.53379 23.3826 6.12239 23.2422C5.83141 23.1429 5.66793 23.2228 5.63201 23.5336C5.56746 24.0923 5.48795 24.1684 4.92963 24.1709C3.54424 24.177 2.15873 24.168 0.77357 24.1886C0.242868 24.1965 -0.00416311 23.9641 5.30441e-05 23.41C0.0170958 21.154 0.0160269 18.8976 5.30441e-05 16.6415C-0.00333176 16.1643 0.287405 15.917 0.719234 15.9196C2.52019 15.9304 4.32108 15.9394 6.12197 15.9499C6.39852 15.9514 6.64115 16.0136 6.79769 16.2787C6.82779 16.3297 6.95547 16.3648 7.02138 16.3466C7.58741 16.1902 8.14127 15.9779 8.71509 15.8647C9.38617 15.7323 10.0768 15.7023 10.7528 15.5909C11.3386 15.4944 11.9168 15.3502 12.4966 15.2194C12.8719 15.1347 13.2483 15.0507 13.6163 14.94C14.05 14.8096 14.4984 14.6958 14.8959 14.4889C15.1905 14.3357 15.4068 14.4205 15.5908 14.5773C16.1689 15.0702 16.4946 15.7085 16.402 16.477C16.3274 17.0958 16.0223 17.6267 15.5052 17.998C15.0682 18.3117 14.6093 18.5949 14.1601 18.8918C14.1586 18.9173 14.157 18.9429 14.1554 18.9685ZM5.881 22.1262C6.40754 22.2684 6.9209 22.4075 7.43444 22.5456C7.78896 22.6408 8.14579 22.7282 8.49804 22.8311C9.04424 22.9907 9.57845 23.2092 10.1346 23.3123C10.7092 23.4187 11.3035 23.4402 11.8901 23.4525C12.1766 23.4584 12.4735 23.3858 12.7511 23.3009C13.2195 23.1576 13.6726 22.9651 14.1387 22.8136C14.7543 22.6137 15.3831 22.453 15.9936 22.2392C16.6629 22.005 17.3279 21.7522 17.9764 21.466C18.6641 21.1625 19.339 20.8265 20.0033 20.4741C20.6035 20.1558 21.185 19.8017 21.7685 19.4526C22.2214 19.1819 22.6666 18.8982 23.1107 18.613C23.2776 18.5058 23.2836 18.3972 23.0978 18.2809C22.8095 18.1004 22.4878 18.0726 22.188 18.1555C21.6222 18.3119 21.074 18.5312 20.5149 18.7134C19.983 18.8867 19.4494 19.0557 18.9112 19.2078C18.5193 19.3184 18.1197 19.402 17.7222 19.4916C17.1524 19.6201 16.5869 19.7925 16.0097 19.8568C15.1893 19.9481 14.3602 19.9645 13.5343 20.0011C13.0147 20.0242 12.6374 19.5858 12.5533 19.2169C12.4474 18.7529 12.7646 18.3292 13.217 18.1171C13.7901 17.8486 14.3502 17.5401 14.8791 17.1927C15.3043 16.9133 15.4254 16.4594 15.3395 15.9582C15.2875 15.6553 15.1184 15.5361 14.8214 15.6161C14.6475 15.6629 14.4852 15.7515 14.3125 15.8044C13.9245 15.9233 13.5349 16.0382 13.1427 16.1421C12.9 16.2063 12.6507 16.2452 12.4052 16.2997C12.0526 16.3782 11.7041 16.4843 11.3478 16.5355C10.8431 16.608 10.3323 16.6367 9.82501 16.6926C9.50458 16.7279 9.17423 16.7395 8.86877 16.8304C8.21372 17.0256 7.56716 17.2528 6.92821 17.496C6.78361 17.551 6.60879 17.7076 6.57732 17.8467C6.45481 18.3884 6.3845 18.942 6.2943 19.4909C6.21027 20.0025 6.1234 20.5136 6.04222 21.0257C5.98723 21.3728 5.94002 21.7212 5.881 22.1262ZM1.09406 23.1949C2.24816 23.1949 3.3652 23.1926 4.48218 23.1973C4.64525 23.198 4.67167 23.1168 4.68872 22.9802C4.731 22.6406 4.78456 22.3022 4.84513 21.9654C4.91775 21.5611 5.01235 21.1607 5.07892 20.7557C5.14234 20.3695 5.17797 19.9788 5.23325 19.5912C5.27447 19.3025 5.32726 19.0153 5.37518 18.7275C5.45707 18.2357 5.53587 17.7434 5.62245 17.2525C5.66865 16.9907 5.54852 16.9381 5.31128 16.9398C4.01508 16.949 2.71876 16.9516 1.42268 16.9389C1.15433 16.9363 1.06823 17.0068 1.06995 17.2837C1.08141 19.1439 1.07571 21.0041 1.0766 22.8644C1.0766 22.9614 1.08651 23.0584 1.09406 23.1949Z" fill="#00024A"/>
<path fill-rule="evenodd" clip-rule="evenodd" d="M12.3191 0C15.5581 0.0754751 18.1365 2.66984 18.1312 5.85755C18.1257 9.15874 15.6033 11.7295 12.2567 11.7039C8.92819 11.6784 6.49143 9.22709 6.44493 5.87637C6.39867 2.5427 9.06482 0.105226 12.3191 0ZM12.3282 1.0674C9.70889 1.00214 7.48626 3.2541 7.46542 5.75232C7.44202 8.55387 9.67884 10.6715 12.2846 10.6772C14.9237 10.683 17.054 8.50197 17.1004 5.94163C17.1483 3.30018 14.8274 0.984681 12.3282 1.0674Z" fill="#00024A"/>
<path fill-rule="evenodd" clip-rule="evenodd" d="M4.41333 17.4585C4.7992 17.4592 5.07319 17.6983 5.08008 18.0391C5.08507 18.2893 4.78655 18.7015 4.41666 18.6757C4.05098 18.6502 3.74653 18.3986 3.7432 18.062C3.73958 17.6992 4.00751 17.4578 4.41333 17.4585Z" fill="#00024A"/>
<path fill-rule="evenodd" clip-rule="evenodd" d="M12.8505 3.19929C13.4279 3.16098 13.8878 3.37779 14.1913 3.8576C14.3481 4.10546 14.5006 4.38349 14.3623 4.70428C14.2639 4.9326 14.0852 5.08171 13.8422 5.05285C13.5837 5.02215 13.3933 4.83949 13.3635 4.57696C13.3355 4.3304 13.2235 4.26271 12.9987 4.26663C12.5144 4.27512 12.0297 4.2753 11.5454 4.26674C11.3038 4.26247 11.2105 4.36657 11.2126 4.60273C11.2194 5.37001 11.1397 5.34751 11.9149 5.33866C12.2905 5.33438 12.6665 5.3459 13.0419 5.33646C13.7655 5.31817 14.4124 6.00451 14.4195 6.71568C14.4251 7.27756 14.3928 7.80683 13.9108 8.20125C13.6596 8.4066 13.3829 8.53219 13.0645 8.53332C12.9039 8.53391 12.8245 8.58813 12.7495 8.7218C12.4935 9.17815 12.0851 9.19965 11.7922 8.71277C11.7472 8.63789 11.6471 8.54941 11.5705 8.54763C11.0511 8.53593 10.6374 8.31776 10.3842 7.87987C10.2513 7.64994 10.1887 7.35683 10.1746 7.08807C10.1641 6.88848 10.5251 6.65054 10.7071 6.66592C10.9119 6.68326 11.1858 6.93759 11.2069 7.17358C11.2275 7.40386 11.3381 7.47572 11.5512 7.47304C12.0454 7.46687 12.5399 7.46722 13.0342 7.47275C13.2588 7.47518 13.3554 7.3775 13.3535 7.15309C13.3469 6.36752 13.436 6.39353 12.6364 6.4019C12.2904 6.40552 11.9439 6.39109 11.5984 6.40475C10.8188 6.43545 10.1403 5.75736 10.1411 4.95249C10.1417 4.34424 10.2268 3.79317 10.7797 3.45041C10.991 3.31936 11.2566 3.26751 11.5041 3.20653C11.6243 3.1769 11.7118 3.19341 11.7903 3.03883C12.0522 2.52328 12.5118 2.55344 12.7804 3.03628C12.8079 3.08563 12.8254 3.14032 12.8505 3.19929Z" fill="#00024A"/>
</svg>
