<svg width="24" height="24" viewBox="0 0 24 24" fill="none" xmlns="http://www.w3.org/2000/svg">
<path d="M4.38983 13.0416C4.00823 13.0416 3.69863 13.3536 3.69863 13.7352C3.69863 14.1168 4.00823 14.4288 4.38983 14.4288H11.069C10.6394 14.004 10.2482 13.5384 9.90263 13.0392H4.38983V13.0416ZM16.8434 0.537598C13.0226 0.537598 9.92663 3.648 9.92663 7.4856C9.92663 11.3232 13.0226 14.4336 16.8434 14.4336C20.6642 14.4312 23.7602 11.3208 23.7602 7.4856C23.7602 3.648 20.6642 0.537598 16.8434 0.537598ZM16.8434 13.0992C13.7546 13.0992 11.2514 10.584 11.2514 7.4832C11.2514 4.3824 13.7546 1.8672 16.8434 1.8672C19.9322 1.8672 22.4354 4.3824 22.4354 7.4832C22.4354 10.584 19.9298 13.0992 16.8434 13.0992ZM3.69863 18.6C3.69863 18.984 4.00823 19.2936 4.38983 19.2936H14.7674C15.149 19.2936 15.4586 18.9816 15.4586 18.6C15.4586 18.216 15.149 17.9064 14.7674 17.9064H4.38983C4.00823 17.904 3.69863 18.216 3.69863 18.6ZM18.2258 22.0728C18.2258 22.4568 17.9162 22.7664 17.5346 22.7664H1.62263C1.24103 22.7664 0.931434 22.4544 0.931434 22.0728V2.6208C0.931434 2.2368 1.24103 1.9272 1.62263 1.9272H9.90263C10.0682 1.6872 10.2458 1.4568 10.4306 1.2336H1.62263C0.859434 1.2336 0.240234 1.8552 0.240234 2.6208V22.0728C0.240234 22.8408 0.859434 23.4624 1.62263 23.4624H17.5322C18.2954 23.4624 18.9146 22.8408 18.9146 22.0728V17.172C18.6938 17.1984 18.4634 17.2176 18.2234 17.2248L18.2258 22.0728ZM20.3018 6.7896H17.5346V4.0104C17.5346 3.6264 17.225 3.3168 16.8434 3.3168C16.4618 3.3168 16.1522 3.6288 16.1522 4.0104V7.4832C16.1522 7.8672 16.4618 8.1768 16.8434 8.1768H20.3018C20.6834 8.1768 20.993 7.8648 20.993 7.4832C20.993 7.1016 20.6834 6.7896 20.3018 6.7896ZM4.38983 9.5688H7.15703C7.53863 9.5688 7.84823 9.2568 7.84823 8.8752C7.84823 8.4912 7.53863 8.1816 7.15703 8.1816H4.38983C4.00823 8.1816 3.69863 8.4936 3.69863 8.8752C3.69863 9.2568 4.00823 9.5688 4.38983 9.5688Z" fill="#00024A"/>
</svg>
