<svg width="24" height="25" viewBox="0 0 24 25" fill="none" xmlns="http://www.w3.org/2000/svg">
<g clip-path="url(#clip0_1_5864)">
<path fill-rule="evenodd" clip-rule="evenodd" d="M20.582 0.639695C20.6862 0.664208 20.7913 0.685827 20.8945 0.713796C21.4705 0.869936 21.8884 1.40793 21.8885 2.00816C21.8899 9.04189 21.8904 16.0756 21.8887 23.1094C21.8884 23.9071 21.3662 24.4595 20.5644 24.4974C19.9267 24.5276 19.2875 24.5369 18.6489 24.5374C13.6517 24.5418 8.65455 24.5426 3.65737 24.5406C3.46444 24.5405 3.26752 24.5184 3.07941 24.476C2.45723 24.3357 2.05265 23.8195 2.05237 23.1771C2.05054 19.1311 2.04979 15.0851 2.04942 11.0391C2.04919 8.03571 2.04919 5.03235 2.0512 2.02894C2.05162 1.38981 2.44928 0.860411 3.033 0.712955C3.15838 0.681345 3.28731 0.663742 3.41456 0.639648C9.13708 0.639695 14.8595 0.639695 20.582 0.639695ZM21.0243 12.5818C21.023 12.5818 21.0217 12.5818 21.0205 12.5818C21.0205 9.11151 21.0208 5.64117 21.0202 2.17089C21.0202 1.69182 20.8288 1.50234 20.359 1.50243C14.7771 1.50309 9.19523 1.50327 3.61335 1.50285C3.08923 1.50281 2.89592 1.69611 2.89634 2.21935C2.8992 5.99291 2.90158 9.76651 2.90294 13.5401C2.90411 16.6914 2.90327 19.8426 2.90439 22.9938C2.90458 23.4886 3.08675 23.6712 3.5784 23.6778C3.6875 23.6793 3.79669 23.677 3.90584 23.677C6.90705 23.6771 9.90821 23.6772 12.9094 23.6774C15.3805 23.6775 17.8518 23.6794 20.3229 23.6762C20.8456 23.6755 21.0241 23.4869 21.0242 22.9693C21.0243 19.5068 21.0243 16.0442 21.0243 12.5818Z" fill="#00024A"/>
<path fill-rule="evenodd" clip-rule="evenodd" d="M14.6934 21.9621C15.0059 21.3066 15.3133 20.662 15.6203 20.0172C15.7505 19.7436 15.8585 19.4567 16.014 19.1982C16.299 18.7243 16.3563 18.2195 16.3424 17.6788C16.3184 16.7539 16.3364 15.828 16.3368 14.9025C16.3368 14.8264 16.3368 14.7501 16.3368 14.6781C17.2287 14.5202 18.9376 15.1428 19.7397 16.6659C20.5756 18.2529 20.2509 20.1386 18.9143 21.3742C17.7952 22.4089 15.8592 22.6884 14.6934 21.9621Z" fill="#00024A"/>
<path fill-rule="evenodd" clip-rule="evenodd" d="M11.9367 18.7148C13.1773 18.7148 14.4207 18.7148 15.7051 18.7148C15.1566 19.8574 14.6174 20.9811 14.0793 22.1021C12.9148 21.7596 11.7303 19.8849 11.9367 18.7148Z" fill="#00024A"/>
<path fill-rule="evenodd" clip-rule="evenodd" d="M16.5133 11.5007C15.5858 11.5007 14.658 11.5048 13.7305 11.4989C13.2939 11.4961 13.0283 11.1158 13.1869 10.7344C13.2892 10.4887 13.4881 10.3913 13.7455 10.3916C14.2211 10.3923 14.6965 10.392 15.1721 10.3919C16.5285 10.3914 17.8849 10.3885 19.2413 10.3936C19.377 10.3941 19.5247 10.4176 19.6454 10.4752C19.8604 10.5779 19.9646 10.8456 19.9111 11.07C19.8502 11.3255 19.6334 11.4978 19.343 11.5C18.6337 11.5055 17.9243 11.5034 17.2149 11.5042C16.9811 11.5045 16.7472 11.5042 16.5133 11.5042C16.5133 11.503 16.5133 11.5018 16.5133 11.5007Z" fill="#00024A"/>
<path fill-rule="evenodd" clip-rule="evenodd" d="M16.5113 3.35744C17.446 3.35753 18.3807 3.35436 19.3154 3.35889C19.7721 3.36118 20.0412 3.73149 19.8761 4.12334C19.7633 4.39112 19.5372 4.46009 19.2669 4.45967C17.7871 4.45714 16.3072 4.45906 14.8273 4.45929C14.4768 4.45934 14.1263 4.46144 13.7758 4.45761C13.3619 4.45308 13.1498 4.26015 13.1514 3.89702C13.1527 3.5691 13.395 3.35828 13.7775 3.35781C14.6887 3.35646 15.6 3.35735 16.5113 3.35744Z" fill="#00024A"/>
<path fill-rule="evenodd" clip-rule="evenodd" d="M7.62455 17.7481C8.55961 17.7481 9.49467 17.7463 10.4297 17.7491C10.721 17.75 10.8906 17.8681 10.9699 18.106C11.0493 18.3443 10.9873 18.61 10.7786 18.7247C10.6436 18.7989 10.4696 18.8315 10.3128 18.8322C8.62192 18.8393 6.93098 18.8363 5.24004 18.8361C5.07648 18.8361 4.91176 18.8487 4.74965 18.8336C4.41959 18.8029 4.20387 18.5645 4.21847 18.2661C4.23349 17.9583 4.45548 17.75 4.79597 17.7483C5.7388 17.7435 6.68167 17.7466 7.62455 17.7466C7.62455 17.7471 7.62455 17.7476 7.62455 17.7481Z" fill="#00024A"/>
<path fill-rule="evenodd" clip-rule="evenodd" d="M7.62564 14.221C8.55279 14.221 9.47995 14.2221 10.4071 14.2202C10.6468 14.2197 10.8323 14.3095 10.9434 14.5247C11.0456 14.7226 11.0243 14.9173 10.8951 15.0966C10.7577 15.2873 10.5569 15.3253 10.3365 15.3251C9.15223 15.324 7.968 15.3262 6.78372 15.3279C6.2306 15.3287 5.67743 15.3319 5.12426 15.3318C5.00758 15.3318 4.89034 15.3281 4.77437 15.3159C4.435 15.2801 4.21025 15.0574 4.21694 14.7703C4.22433 14.4524 4.46845 14.2242 4.82082 14.2217C5.47528 14.2171 6.12973 14.2203 6.78419 14.2202C7.0647 14.2202 7.34517 14.2202 7.62564 14.2202C7.62564 14.2205 7.62564 14.2208 7.62564 14.221Z" fill="#00024A"/>
<path fill-rule="evenodd" clip-rule="evenodd" d="M7.60878 22.3528C6.66656 22.3527 5.72439 22.356 4.78221 22.3513C4.36392 22.3491 4.11073 21.9769 4.26184 21.5953C4.35667 21.3559 4.5453 21.2639 4.7977 21.2649C5.48289 21.2675 6.16808 21.2622 6.85327 21.2617C8.00565 21.2608 9.15806 21.2558 10.3103 21.2666C10.4799 21.2682 10.6706 21.312 10.8127 21.3992C11.0059 21.5177 11.0535 21.7939 10.9632 22.009C10.8708 22.2288 10.7082 22.354 10.4587 22.3536C9.50871 22.3521 8.55872 22.353 7.60878 22.3528Z" fill="#00024A"/>
<path fill-rule="evenodd" clip-rule="evenodd" d="M16.535 6.88625C17.4465 6.88625 18.3579 6.8862 19.2694 6.88625C19.6511 6.88625 19.9195 7.11126 19.9209 7.43218C19.9223 7.74736 19.6392 7.9881 19.2671 7.98759C17.491 7.98521 15.7148 7.98287 13.9386 7.98007C13.8453 7.97993 13.7511 7.9818 13.6586 7.97185C13.3433 7.93796 13.1273 7.70403 13.1397 7.41598C13.153 7.10664 13.3793 6.89027 13.7071 6.88915C14.6497 6.88606 15.5924 6.88807 16.535 6.88807C16.535 6.88747 16.535 6.88686 16.535 6.88625Z" fill="#00024A"/>
<path fill-rule="evenodd" clip-rule="evenodd" d="M4.79173 10.7168C4.9347 10.7168 5.04193 10.7167 5.14916 10.7168C7.22148 10.7178 9.29381 10.7187 11.3661 10.7209C11.4589 10.721 11.5666 10.7055 11.6404 10.7461C11.7154 10.7873 11.8055 10.8931 11.7994 10.963C11.7935 11.032 11.6847 11.1259 11.6046 11.1471C11.4802 11.18 11.342 11.1628 11.2096 11.1628C9.07523 11.163 6.94083 11.1631 4.80642 11.1618C4.36203 11.1614 4.34682 11.14 4.34691 10.7004C4.34738 8.5077 4.34528 6.31502 4.34626 4.12238C4.34635 3.94317 4.29573 3.69715 4.57718 3.70527C4.83323 3.71265 4.79159 3.94803 4.79173 4.12107C4.79323 6.21271 4.79215 8.30436 4.79173 10.396C4.79173 10.4943 4.79173 10.5927 4.79173 10.7168Z" fill="#00024A"/>
<path fill-rule="evenodd" clip-rule="evenodd" d="M11.3302 10.486C11.0486 10.486 10.7779 10.486 10.4866 10.486C10.4822 10.402 10.4749 10.3271 10.4748 10.2523C10.4735 9.16295 10.4649 8.07351 10.4801 6.98441C10.4828 6.78582 10.5524 6.57263 10.6451 6.39412C10.8331 6.03225 11.058 5.68948 11.2677 5.33887C11.2885 5.3434 11.3094 5.34788 11.3302 5.35236C11.3302 7.05557 11.3302 8.75882 11.3302 10.486Z" fill="#00024A"/>
<path fill-rule="evenodd" clip-rule="evenodd" d="M5.99088 8.51004C5.66901 9.14412 5.35491 9.76266 5.0409 10.3812C4.96773 10.0857 4.9282 9.80524 5.06869 9.53429C5.28333 9.12031 5.50069 8.70755 5.70471 8.28839C5.79294 8.10703 5.90171 8.07958 6.07795 8.15774C6.47388 8.33345 6.87495 8.49757 7.29535 8.67547C7.5331 8.17623 7.76014 7.7009 7.98592 7.22496C8.12861 6.92421 8.131 6.92202 8.44028 7.01774C8.70026 7.09824 8.96173 7.17444 9.219 7.26288C9.34685 7.30686 9.42306 7.27226 9.48847 7.1602C9.97029 6.33435 10.4563 5.51102 10.9351 4.68353C10.9626 4.63595 10.9386 4.55863 10.9386 4.43914C11.0948 4.32213 11.3039 4.16557 11.562 3.97217C11.5176 4.2915 11.4819 4.54821 11.4462 4.80502C11.4274 4.79148 11.4086 4.77799 11.3898 4.76445C11.327 4.81992 11.245 4.86395 11.2043 4.9325C10.7083 5.76797 10.2119 6.60344 9.73118 7.44773C9.60763 7.66476 9.47485 7.73083 9.24084 7.64015C9.00903 7.55036 8.76505 7.49228 8.53095 7.4079C8.37703 7.35243 8.29235 7.38171 8.22176 7.53944C8.02194 7.98587 7.79855 8.42183 7.59785 8.86789C7.50527 9.07357 7.38195 9.09883 7.1892 9.01404C6.7993 8.84239 6.40417 8.68294 5.99088 8.51004Z" fill="#00024A"/>
<path fill-rule="evenodd" clip-rule="evenodd" d="M12.0838 18.0376C11.9641 16.1486 13.7682 14.1411 15.8897 14.2488C15.8897 15.5041 15.8897 16.7602 15.8897 18.0376C14.6261 18.0376 13.3626 18.0376 12.0838 18.0376ZM15.6675 14.4384C15.558 14.4458 15.4737 14.4474 15.3906 14.4576C13.8512 14.6479 12.5075 15.9808 12.2985 17.5238C12.2517 17.8694 12.2517 17.869 12.6059 17.8687C13.5326 17.868 14.4592 17.8681 15.3859 17.8666C15.4764 17.8664 15.5668 17.8578 15.6675 17.8526C15.6675 16.7107 15.6675 15.5944 15.6675 14.4384Z" fill="#00024A"/>
<path fill-rule="evenodd" clip-rule="evenodd" d="M9.99372 10.483C9.72678 10.483 9.46633 10.483 9.19092 10.483C9.19092 9.62685 9.19092 8.78442 9.19092 7.89348C9.58292 8.0865 9.78722 7.85701 9.99372 7.50635C9.99372 8.54031 9.99372 9.50022 9.99372 10.483Z" fill="#00024A"/>
<path fill-rule="evenodd" clip-rule="evenodd" d="M8.71827 10.4858C8.41876 10.4858 8.14934 10.4858 7.85119 10.4858C7.88833 9.72855 7.69329 8.95555 8.17296 8.26613C8.26452 8.13455 8.29858 7.96436 8.38003 7.82395C8.41357 7.76606 8.5208 7.69359 8.56145 7.70984C8.62793 7.7365 8.71088 7.82984 8.71163 7.89595C8.72164 8.75085 8.71827 9.60593 8.71827 10.4858Z" fill="#00024A"/>
<path fill-rule="evenodd" clip-rule="evenodd" d="M6.52344 10.4762C6.52344 9.99841 6.52344 9.53461 6.52344 9.02734C6.80236 9.1388 7.06075 9.23634 7.31272 9.3484C7.353 9.36633 7.38458 9.44865 7.38575 9.50202C7.39249 9.8199 7.38907 10.138 7.38907 10.4762C7.09976 10.4762 6.82412 10.4762 6.52344 10.4762Z" fill="#00024A"/>
<path fill-rule="evenodd" clip-rule="evenodd" d="M6.06414 9.02359C6.06414 9.50102 6.06414 9.97841 6.06414 10.4761C5.81619 10.4761 5.57249 10.4761 5.29395 10.4761C5.54166 9.97911 5.78358 9.49397 6.0255 9.00879C6.03832 9.01379 6.05123 9.01869 6.06414 9.02359Z" fill="#00024A"/>
</g>
<defs>
<clipPath id="clip0_1_5864">
<rect width="24" height="24" fill="white" transform="translate(0 0.598145)"/>
</clipPath>
</defs>
</svg>
